# xmcd
#
# Track frame offsets:
#	150
#	9752
#	23409
#	37425
#	50233
#	65031
#	76108
#	88143
#	99276
#	109125
#	121861
#	133740
#	148351
#	161880
#	172113
#	186335
#	197533
#
# Disc length: 2816 seconds
#
# Revision: 0
# Processed by: cddbd v1.5.2PL0 Copyright (c) Steve Scherf et al.
# Submitted via: audiograbber 1.83.01
#
DISCID=f20afe11
DTITLE=Various Artist - CBC 60'S COUNTRY 5084-01
DYEAR=1900
DGENRE=
TTITLE0=ROGER MILLER - DANG ME
TTITLE1=JIM REEVES - DISTANT DRUMS
TTITLE2=STONEWALL JACKSON - DON'T BE ANGRY
TTITLE3=KITTY WELLS - HEARTBREAK U.S.A
TTITLE4=JERRY WALLACE - IN THE MISTY MOONLIGHT
TTITLE5=CHARLIE RICH - BABY BABY
TTITLE6=FARON YOUNG - HELLO WALLS
TTITLE7=JIM REEVES - IS IT REALLY OVER
TTITLE8=BUCK OWENS - LOVE'S GONNA LIVE HERE
TTITLE9=LITTLE JIMMY DICKENS - MY THE BIRD OF PARADISE FLY UP YOUR NOSE
TTITLE10=CONNIE SMITH - THEN AND ONLY THEN
TTITLE11=CARL AND PEARL BUTLER - DON'T LET ME CROSS OVER
TTITLE12=ERNEST ASHWORTH - TALK BACK TREMBLING LIPS
TTITLE13=ROGER MILLER - CHUG-A-LUG
TTITLE14=GEORGE JONES - THE WINDOW UP ABOVE
TTITLE15=GEORGE HAMILTON IV - ABILENE
TTITLE16=BILL ANDERSON - STILL
EXTD=
EXTT0=
EXTT1=
EXTT2=
EXTT3=
EXTT4=
EXTT5=
EXTT6=
EXTT7=
EXTT8=
EXTT9=
EXTT10=
EXTT11=
EXTT12=
EXTT13=
EXTT14=
EXTT15=
EXTT16=
PLAYORDER=
